COMMENT vga
STARTFONT 2.1
FONT vga
SIZE 14 75 75
FONTBOUNDINGBOX 8 14 0 -4
STARTPROPERTIES 3
FONT_DESCENT 4
FONT_ASCENT 10
AVERAGE_WIDTH 80
DEFAULT_CHAR 0
ENDPROPERTIES
CHARS 221
STARTCHAR u0020
ENCODING 32
SWIDTH 666 0
DWIDTH 8 0
BBX 8 14 0 -4
BITMAP
00
00
00
00
00
00
00
00
00
00
00
00
00
00
ENDCHAR
STARTCHAR u005A
ENCODING 90
SWIDTH 666 0
DWIDTH 8 0
BBX 8 14 0 -4
BITMAP
00
00
00
FE
C6
86
0C
18
30
62
C6
FE
00
00
ENDCHAR
STARTCHAR u0076
ENCODING 118
SWIDTH 666 0
DWIDTH 8 0
BBX 8 14 0 -4
BITMAP
00
00
00
00
00
00
C6
C6
C6
C6
6C
38
00
00
ENDCHAR
STARTCHAR u0047
ENCODING 71
SWIDTH 666 0
DWIDTH 8 0
BBX 8 14 0 -4
BITMAP
00
00
00
3C
66
C2
C0
C0
DE
C6
66
3A
00
00
ENDCHAR
STARTCHAR u03BF
ENCODING 959
SWIDTH 666 0
DWIDTH 8 0
BBX 8 14 0 -4
BITMAP
00
00
00
00
00
00
7C
C6
C6
C6
C6
7C
00
00
ENDCHAR
STARTCHAR u03BB
ENCODING 955
SWIDTH 666 0
DWIDTH 8 0
BBX 8 14 0 -4
BITMAP
00
00
00
38
6C
0C
0C
0C
36
66
66
66
00
00
ENDCHAR
STARTCHAR u03AE
ENCODING 942
SWIDTH 666 0
DWIDTH 8 0
BBX 8 14 0 -4
BITMAP
00
00
00
38
10
00
DC
66
66
66
66
66
06
06
ENDCHAR
STARTCHAR u0066
ENCODING 102
SWIDTH 666 0
DWIDTH 8 0
BBX 8 14 0 -4
BITMAP
00
00
00
1C
36
32
30
78
30
30
30
78
00
00
ENDCHAR
STARTCHAR u0394
ENCODING 916
SWIDTH 666 0
DWIDTH 8 0
BBX 8 14 0 -4
BITMAP
00
00
00
10
38
6C
C6
C6
C6
C6
C6
FE
00
00
ENDCHAR
STARTCHAR u0372
ENCODING 882
SWIDTH 666 0
DWIDTH 8 0
BBX 8 14 0 -4
BITMAP
00
0C
06
06
0C
00
00
00
00
00
00
00
00
00
ENDCHAR
STARTCHAR u03A9
ENCODING 937
SWIDTH 666 0
DWIDTH 8 0
BBX 8 14 0 -4
BITMAP
00
00
00
3C
66
C3
C3
C3
C3
66
24
E7
00
00
ENDCHAR
STARTCHAR u0390
ENCODING 912
SWIDTH 666 0
DWIDTH 8 0
BBX 8 14 0 -4
BITMAP
00
0C
08
00
66
00
18
18
18
18
18
0E
00
00
ENDCHAR
STARTCHAR u25CB
ENCODING 9675
SWIDTH 666 0
DWIDTH 8 0
BBX 8 14 0 -4
BITMAP
00
00
00
00
3C
66
42
42
66
3C
00
00
00
00
ENDCHAR
STARTCHAR u007D
ENCODING 125
SWIDTH 666 0
DWIDTH 8 0
BBX 8 14 0 -4
BITMAP
00
00
00
70
18
18
18
0E
18
18
18
70
00
00
ENDCHAR
STARTCHAR u002C
ENCODING 44
SWIDTH 666 0
DWIDTH 8 0
BBX 8 14 0 -4
BITMAP
00
00
00
00
00
00
00
00
00
18
18
18
30
00
ENDCHAR
STARTCHAR u0399
ENCODING 921
SWIDTH 666 0
DWIDTH 8 0
BBX 8 14 0 -4
BITMAP
00
00
00
3C
18
18
18
18
18
18
18
3C
00
00
ENDCHAR
STARTCHAR u0037
ENCODING 55
SWIDTH 666 0
DWIDTH 8 0
BBX 8 14 0 -4
BITMAP
00
00
00
FE
C6
06
06
0C
18
30
30
30
00
00
ENDCHAR
STARTCHAR u0054
ENCODING 84
SWIDTH 666 0
DWIDTH 8 0
BBX 8 14 0 -4
BITMAP
00
00
00
7E
7E
5A
18
18
18
18
18
3C
00
00
ENDCHAR
STARTCHAR u005F
ENCODING 95
SWIDTH 666 0
DWIDTH 8 0
BBX 8 14 0 -4
BITMAP
00
00
00
00
00
00
00
00
00
00
00
00
00
FF
ENDCHAR
STARTCHAR u0039
ENCODING 57
SWIDTH 666 0
DWIDTH 8 0
BBX 8 14 0 -4
BITMAP
00
00
00
7C
C6
C6
C6
7E
06
06
0C
78
00
00
ENDCHAR
STARTCHAR u0397
ENCODING 919
SWIDTH 666 0
DWIDTH 8 0
BBX 8 14 0 -4
BITMAP
00
00
00
C6
C6
C6
C6
FE
C6
C6
C6
C6
00
00
ENDCHAR
STARTCHAR u039B
ENCODING 923
SWIDTH 666 0
DWIDTH 8 0
BBX 8 14 0 -4
BITMAP
00
00
00
10
38
6C
C6
C6
C6
C6
C6
C6
00
00
ENDCHAR
STARTCHAR u266C
ENCODING 9836
SWIDTH 666 0
DWIDTH 8 0
BBX 8 14 0 -4
BITMAP
00
00
7F
63
7F
63
63
63
63
67
E7
E6
C0
00
ENDCHAR
STARTCHAR u00A3
ENCODING 163
SWIDTH 666 0
DWIDTH 8 0
BBX 8 14 0 -4
BITMAP
00
00
38
6C
64
60
F0
60
60
60
EC
FC
00
00
ENDCHAR
STARTCHAR u006D
ENCODING 109
SWIDTH 666 0
DWIDTH 8 0
BBX 8 14 0 -4
BITMAP
00
00
00
00
00
00
EC
FE
D6
D6
D6
C6
00
00
ENDCHAR
STARTCHAR u2190
ENCODING 8592
SWIDTH 666 0
DWIDTH 8 0
BBX 8 14 0 -4
BITMAP
00
00
00
00
00
30
60
FE
60
30
00
00
00
00
ENDCHAR
STARTCHAR u03F3
ENCODING 1011
SWIDTH 666 0
DWIDTH 8 0
BBX 8 14 0 -4
BITMAP
06
0C
18
00
00
00
00
00
00
00
00
00
00
00
ENDCHAR
STARTCHAR u0059
ENCODING 89
SWIDTH 666 0
DWIDTH 8 0
BBX 8 14 0 -4
BITMAP
00
00
00
66
66
66
66
3C
18
18
18
3C
00
00
ENDCHAR
STARTCHAR u263C
ENCODING 9788
SWIDTH 666 0
DWIDTH 8 0
BBX 8 14 0 -4
BITMAP
00
00
00
18
18
DB
3C
E7
3C
DB
18
18
00
00
ENDCHAR
STARTCHAR u2666
ENCODING 9830
SWIDTH 666 0
DWIDTH 8 0
BBX 8 14 0 -4
BITMAP
00
00
00
00
10
38
7C
FE
7C
38
10
00
00
00
ENDCHAR
STARTCHAR u0023
ENCODING 35
SWIDTH 666 0
DWIDTH 8 0
BBX 8 14 0 -4
BITMAP
00
00
00
00
6C
6C
FE
6C
6C
FE
6C
6C
00
00
ENDCHAR
STARTCHAR u03A6
ENCODING 934
SWIDTH 666 0
DWIDTH 8 0
BBX 8 14 0 -4
BITMAP
00
00
00
3C
18
7E
99
99
7E
18
18
3C
00
00
ENDCHAR
STARTCHAR u004E
ENCODING 78
SWIDTH 666 0
DWIDTH 8 0
BBX 8 14 0 -4
BITMAP
00
00
00
C6
E6
F6
FE
DE
CE
C6
C6
C6
00
00
ENDCHAR
STARTCHAR u2665
ENCODING 9829
SWIDTH 666 0
DWIDTH 8 0
BBX 8 14 0 -4
BITMAP
00
00
00
00
6C
FE
FE
FE
FE
7C
38
10
00
00
ENDCHAR
STARTCHAR u03A4
ENCODING 932
SWIDTH 666 0
DWIDTH 8 0
BBX 8 14 0 -4
BITMAP
00
00
00
7E
7E
5A
18
18
18
18
18
3C
00
00
ENDCHAR
STARTCHAR u005D
ENCODING 93
SWIDTH 666 0
DWIDTH 8 0
BBX 8 14 0 -4
BITMAP
00
00
00
3C
0C
0C
0C
0C
0C
0C
0C
3C
00
00
ENDCHAR
STARTCHAR u006A
ENCODING 106
SWIDTH 666 0
DWIDTH 8 0
BBX 8 14 0 -4
BITMAP
00
00
00
06
06
00
0E
06
06
06
06
66
66
3C
ENDCHAR
STARTCHAR u03B4
ENCODING 948
SWIDTH 666 0
DWIDTH 8 0
BBX 8 14 0 -4
BITMAP
00
00
7C
60
30
18
78
CC
CC
CC
CC
78
00
00
ENDCHAR
STARTCHAR u03C4
ENCODING 964
SWIDTH 666 0
DWIDTH 8 0
BBX 8 14 0 -4
BITMAP
00
00
00
00
00
00
7C
30
30
30
36
1C
00
00
ENDCHAR
STARTCHAR u0041
ENCODING 65
SWIDTH 666 0
DWIDTH 8 0
BBX 8 14 0 -4
BITMAP
00
00
00
10
38
6C
C6
C6
FE
C6
C6
C6
00
00
ENDCHAR
STARTCHAR u03A7
ENCODING 935
SWIDTH 666 0
DWIDTH 8 0
BBX 8 14 0 -4
BITMAP
00
00
00
C6
C6
6C
7C
38
7C
6C
C6
C6
00
00
ENDCHAR
STARTCHAR u03C8
ENCODING 968
SWIDTH 666 0
DWIDTH 8 0
BBX 8 14 0 -4
BITMAP
00
00
00
00
00
00
D6
D6
D6
D6
D6
7C
10
10
ENDCHAR
STARTCHAR u266A
ENCODING 9834
SWIDTH 666 0
DWIDTH 8 0
BBX 8 14 0 -4
BITMAP
00
00
3F
33
3F
30
30
30
30
70
F0
E0
00
00
ENDCHAR
STARTCHAR u2193
ENCODING 8595
SWIDTH 666 0
DWIDTH 8 0
BBX 8 14 0 -4
BITMAP
00
00
18
18
18
18
18
18
18
7E
3C
18
00
00
ENDCHAR
STARTCHAR u0388
ENCODING 904
SWIDTH 666 0
DWIDTH 8 0
BBX 8 14 0 -4
BITMAP
00
00
00
BF
B1
30
30
3E
30
31
31
3F
00
00
ENDCHAR
STARTCHAR u0072
ENCODING 114
SWIDTH 666 0
DWIDTH 8 0
BBX 8 14 0 -4
BITMAP
00
00
00
00
00
00
DC
76
66
60
60
F0
00
00
ENDCHAR
STARTCHAR u003A
ENCODING 58
SWIDTH 666 0
DWIDTH 8 0
BBX 8 14 0 -4
BITMAP
00
00
00
00
00
18
18
00
00
18
18
00
00
00
ENDCHAR
STARTCHAR u038C
ENCODING 908
SWIDTH 666 0
DWIDTH 8 0
BBX 8 14 0 -4
BITMAP
00
00
00
9E
B3
33
33
33
33
33
33
1E
00
00
ENDCHAR
STARTCHAR u0051
ENCODING 81
SWIDTH 666 0
DWIDTH 8 0
BBX 8 14 0 -4
BITMAP
00
00
00
7C
C6
C6
C6
C6
C6
D6
DE
7C
0C
0E
ENDCHAR
STARTCHAR u2195
ENCODING 8597
SWIDTH 666 0
DWIDTH 8 0
BBX 8 14 0 -4
BITMAP
00
00
18
3C
7E
18
18
18
7E
3C
18
00
00
00
ENDCHAR
STARTCHAR u003C
ENCODING 60
SWIDTH 666 0
DWIDTH 8 0
BBX 8 14 0 -4
BITMAP
00
00
00
00
06
0C
18
30
30
18
0C
06
00
00
ENDCHAR
STARTCHAR u0065
ENCODING 101
SWIDTH 666 0
DWIDTH 8 0
BBX 8 14 0 -4
BITMAP
00
00
00
00
00
00
7C
C6
FE
C0
C6
7C
00
00
ENDCHAR
STARTCHAR u0049
ENCODING 73
SWIDTH 666 0
DWIDTH 8 0
BBX 8 14 0 -4
BITMAP
00
00
00
3C
18
18
18
18
18
18
18
3C
00
00
ENDCHAR
STARTCHAR u0056
ENCODING 86
SWIDTH 666 0
DWIDTH 8 0
BBX 8 14 0 -4
BITMAP
00
00
00
C6
C6
C6
C6
C6
C6
6C
38
10
00
00
ENDCHAR
STARTCHAR u004C
ENCODING 76
SWIDTH 666 0
DWIDTH 8 0
BBX 8 14 0 -4
BITMAP
00
00
00
F0
60
60
60
60
60
62
66
FE
00
00
ENDCHAR
STARTCHAR u003E
ENCODING 62
SWIDTH 666 0
DWIDTH 8 0
BBX 8 14 0 -4
BITMAP
00
00
00
00
60
30
18
0C
0C
18
30
60
00
00
ENDCHAR
STARTCHAR u0043
ENCODING 67
SWIDTH 666 0
DWIDTH 8 0
BBX 8 14 0 -4
BITMAP
00
00
00
3C
66
C2
C0
C0
C0
C2
66
3C
00
00
ENDCHAR
STARTCHAR u2015
ENCODING 8213
SWIDTH 666 0
DWIDTH 8 0
BBX 8 14 0 -4
BITMAP
00
00
00
00
00
00
00
FF
00
00
00
00
00
00
ENDCHAR
STARTCHAR u0395
ENCODING 917
SWIDTH 666 0
DWIDTH 8 0
BBX 8 14 0 -4
BITMAP
00
00
00
FE
66
62
68
78
68
62
66
FE
00
00
ENDCHAR
STARTCHAR u038F
ENCODING 911
SWIDTH 666 0
DWIDTH 8 0
BBX 8 14 0 -4
BITMAP
00
00
00
9E
B3
21
21
21
21
33
12
33
00
00
ENDCHAR
STARTCHAR u039E
ENCODING 926
SWIDTH 666 0
DWIDTH 8 0
BBX 8 14 0 -4
BITMAP
00
00
00
FE
82
00
00
7C
00
00
82
FE
00
00
ENDCHAR
STARTCHAR u03B0
ENCODING 944
SWIDTH 666 0
DWIDTH 8 0
BBX 8 14 0 -4
BITMAP
00
00
18
C3
00
00
E7
66
66
66
66
3C
00
00
ENDCHAR
STARTCHAR u03AB
ENCODING 939
SWIDTH 666 0
DWIDTH 8 0
BBX 8 14 0 -4
BITMAP
00
C3
00
66
66
66
66
3C
18
18
18
3C
00
00
ENDCHAR
STARTCHAR u039C
ENCODING 924
SWIDTH 666 0
DWIDTH 8 0
BBX 8 14 0 -4
BITMAP
00
00
00
C6
EE
FE
FE
D6
C6
C6
C6
C6
00
00
ENDCHAR
STARTCHAR u006E
ENCODING 110
SWIDTH 666 0
DWIDTH 8 0
BBX 8 14 0 -4
BITMAP
00
00
00
00
00
00
DC
66
66
66
66
66
00
00
ENDCHAR
STARTCHAR u0052
ENCODING 82
SWIDTH 666 0
DWIDTH 8 0
BBX 8 14 0 -4
BITMAP
00
00
00
FC
66
66
66
7C
6C
66
66
E6
00
00
ENDCHAR
STARTCHAR u03C6
ENCODING 966
SWIDTH 666 0
DWIDTH 8 0
BBX 8 14 0 -4
BITMAP
00
00
00
00
00
00
5C
D6
D6
D6
D6
7C
10
10
ENDCHAR
STARTCHAR u0391
ENCODING 913
SWIDTH 666 0
DWIDTH 8 0
BBX 8 14 0 -4
BITMAP
00
00
00
10
38
6C
C6
C6
FE
C6
C6
C6
00
00
ENDCHAR
STARTCHAR u03CD
ENCODING 973
SWIDTH 666 0
DWIDTH 8 0
BBX 8 14 0 -4
BITMAP
00
00
00
38
10
00
E7
66
66
66
66
3C
00
00
ENDCHAR
STARTCHAR u2663
ENCODING 9827
SWIDTH 666 0
DWIDTH 8 0
BBX 8 14 0 -4
BITMAP
00
00
00
18
3C
3C
E7
E7
E7
18
18
3C
00
00
ENDCHAR
STARTCHAR u25C4
ENCODING 9668
SWIDTH 666 0
DWIDTH 8 0
BBX 8 14 0 -4
BITMAP
00
02
06
0E
1E
3E
FE
3E
1E
0E
06
02
00
00
ENDCHAR
STARTCHAR u03BD
ENCODING 957
SWIDTH 666 0
DWIDTH 8 0
BBX 8 14 0 -4
BITMAP
00
00
00
00
00
00
82
C6
C6
6C
6C
38
00
00
ENDCHAR
STARTCHAR u03A5
ENCODING 933
SWIDTH 666 0
DWIDTH 8 0
BBX 8 14 0 -4
BITMAP
00
00
00
66
66
66
66
3C
18
18
18
3C
00
00
ENDCHAR
STARTCHAR u00A8
ENCODING 168
SWIDTH 666 0
DWIDTH 8 0
BBX 8 14 0 -4
BITMAP
00
00
66
66
00
00
00
00
00
00
00
00
00
00
ENDCHAR
STARTCHAR u0070
ENCODING 112
SWIDTH 666 0
DWIDTH 8 0
BBX 8 14 0 -4
BITMAP
00
00
00
00
00
DC
66
66
66
66
7C
60
60
60
ENDCHAR
STARTCHAR u0045
ENCODING 69
SWIDTH 666 0
DWIDTH 8 0
BBX 8 14 0 -4
BITMAP
00
00
00
FE
66
62
68
78
68
62
66
FE
00
00
ENDCHAR
STARTCHAR u03CA
ENCODING 970
SWIDTH 666 0
DWIDTH 8 0
BBX 8 14 0 -4
BITMAP
00
00
00
C3
00
00
18
18
18
18
18
0E
00
00
ENDCHAR
STARTCHAR u0393
ENCODING 915
SWIDTH 666 0
DWIDTH 8 0
BBX 8 14 0 -4
BITMAP
00
00
00
FE
62
60
60
60
60
60
60
F0
00
00
ENDCHAR
STARTCHAR u00AC
ENCODING 172
SWIDTH 666 0
DWIDTH 8 0
BBX 8 14 0 -4
BITMAP
00
00
00
00
00
00
00
FF
03
03
00
00
00
00
ENDCHAR
STARTCHAR u2642
ENCODING 9794
SWIDTH 666 0
DWIDTH 8 0
BBX 8 14 0 -4
BITMAP
00
00
1E
0E
1A
32
78
CC
CC
CC
CC
78
00
00
ENDCHAR
STARTCHAR u0031
ENCODING 49
SWIDTH 666 0
DWIDTH 8 0
BBX 8 14 0 -4
BITMAP
00
00
00
18
38
78
18
18
18
18
18
7E
00
00
ENDCHAR
STARTCHAR u00B2
ENCODING 178
SWIDTH 666 0
DWIDTH 8 0
BBX 8 14 0 -4
BITMAP
00
3C
66
0C
18
32
7E
00
00
00
00
00
00
00
ENDCHAR
STARTCHAR u00BB
ENCODING 187
SWIDTH 666 0
DWIDTH 8 0
BBX 8 14 0 -4
BITMAP
00
00
00
00
D8
6C
36
6C
D8
00
00
00
00
00
ENDCHAR
STARTCHAR u007C
ENCODING 124
SWIDTH 666 0
DWIDTH 8 0
BBX 8 14 0 -4
BITMAP
00
00
00
18
18
18
18
18
18
18
18
18
00
00
ENDCHAR
STARTCHAR u0068
ENCODING 104
SWIDTH 666 0
DWIDTH 8 0
BBX 8 14 0 -4
BITMAP
00
00
00
E0
60
60
6C
76
66
66
66
E6
00
00
ENDCHAR
STARTCHAR u2192
ENCODING 8594
SWIDTH 666 0
DWIDTH 8 0
BBX 8 14 0 -4
BITMAP
00
00
00
00
00
18
0C
FE
0C
18
00
00
00
00
ENDCHAR
STARTCHAR u03BA
ENCODING 954
SWIDTH 666 0
DWIDTH 8 0
BBX 8 14 0 -4
BITMAP
00
00
00
00
00
00
E6
6C
78
6C
66
E6
00
00
ENDCHAR
STARTCHAR u03CE
ENCODING 974
SWIDTH 666 0
DWIDTH 8 0
BBX 8 14 0 -4
BITMAP
00
00
00
38
10
00
66
C3
C3
DB
FF
66
00
00
ENDCHAR
STARTCHAR u0079
ENCODING 121
SWIDTH 666 0
DWIDTH 8 0
BBX 8 14 0 -4
BITMAP
00
00
00
00
00
C6
C6
C6
C6
C6
7E
06
0C
F8
ENDCHAR
STARTCHAR u004F
ENCODING 79
SWIDTH 666 0
DWIDTH 8 0
BBX 8 14 0 -4
BITMAP
00
00
00
7C
C6
C6
C6
C6
C6
C6
C6
7C
00
00
ENDCHAR
STARTCHAR u263A
ENCODING 9786
SWIDTH 666 0
DWIDTH 8 0
BBX 8 14 0 -4
BITMAP
00
00
7E
81
A5
81
81
BD
99
81
81
7E
00
00
ENDCHAR
STARTCHAR u03CB
ENCODING 971
SWIDTH 666 0
DWIDTH 8 0
BBX 8 14 0 -4
BITMAP
00
00
00
C3
00
00
E7
66
66
66
66
3C
00
00
ENDCHAR
STARTCHAR u03B8
ENCODING 952
SWIDTH 666 0
DWIDTH 8 0
BBX 8 14 0 -4
BITMAP
00
00
00
3E
63
63
63
7F
63
63
63
3E
00
00
ENDCHAR
STARTCHAR u0060
ENCODING 96
SWIDTH 666 0
DWIDTH 8 0
BBX 8 14 0 -4
BITMAP
60
30
18
00
00
00
00
00
00
00
00
00
00
00
ENDCHAR
STARTCHAR u25B2
ENCODING 9650
SWIDTH 666 0
DWIDTH 8 0
BBX 8 14 0 -4
BITMAP
00
00
00
00
10
38
38
7C
7C
FE
FE
00
00
00
ENDCHAR
STARTCHAR u007E
ENCODING 126
SWIDTH 666 0
DWIDTH 8 0
BBX 8 14 0 -4
BITMAP
00
76
DC
00
00
00
00
00
00
00
00
00
00
00
ENDCHAR
STARTCHAR u03B6
ENCODING 950
SWIDTH 666 0
DWIDTH 8 0
BBX 8 14 0 -4
BITMAP
00
FC
0C
18
30
60
C0
C0
C0
C0
78
0C
0C
78
ENDCHAR
STARTCHAR u2640
ENCODING 9792
SWIDTH 666 0
DWIDTH 8 0
BBX 8 14 0 -4
BITMAP
00
00
3C
66
66
66
66
3C
18
7E
18
18
00
00
ENDCHAR
STARTCHAR u00A0
ENCODING 160
SWIDTH 666 0
DWIDTH 8 0
BBX 8 14 0 -4
BITMAP
00
00
00
00
00
00
00
00
00
00
00
00
00
00
ENDCHAR
STARTCHAR u03C1
ENCODING 961
SWIDTH 666 0
DWIDTH 8 0
BBX 8 14 0 -4
BITMAP
00
00
00
00
00
00
3C
66
66
66
66
7C
60
60
ENDCHAR
STARTCHAR u00B0
ENCODING 176
SWIDTH 666 0
DWIDTH 8 0
BBX 8 14 0 -4
BITMAP
00
38
6C
6C
38
00
00
00
00
00
00
00
00
00
ENDCHAR
STARTCHAR u25D8
ENCODING 9688
SWIDTH 666 0
DWIDTH 8 0
BBX 8 14 0 -4
BITMAP
FF
FF
FF
FF
FF
E7
C3
C3
E7
FF
FF
FF
FF
FF
ENDCHAR
STARTCHAR u002F
ENCODING 47
SWIDTH 666 0
DWIDTH 8 0
BBX 8 14 0 -4
BITMAP
00
00
00
00
02
06
0C
18
30
60
C0
80
00
00
ENDCHAR
STARTCHAR u03BC
ENCODING 956
SWIDTH 666 0
DWIDTH 8 0
BBX 8 14 0 -4
BITMAP
00
00
00
00
00
00
66
66
66
66
66
7F
60
60
ENDCHAR
STARTCHAR u0062
ENCODING 98
SWIDTH 666 0
DWIDTH 8 0
BBX 8 14 0 -4
BITMAP
00
00
00
E0
60
60
78
6C
66
66
66
7C
00
00
ENDCHAR
STARTCHAR u03B3
ENCODING 947
SWIDTH 666 0
DWIDTH 8 0
BBX 8 14 0 -4
BITMAP
00
00
00
00
00
C3
66
3C
18
3C
66
42
66
3C
ENDCHAR
STARTCHAR u25AC
ENCODING 9644
SWIDTH 666 0
DWIDTH 8 0
BBX 8 14 0 -4
BITMAP
00
00
00
00
00
00
00
00
FE
FE
FE
FE
00
00
ENDCHAR
STARTCHAR u0025
ENCODING 37
SWIDTH 666 0
DWIDTH 8 0
BBX 8 14 0 -4
BITMAP
00
00
00
00
C2
C6
1C
38
60
C6
86
00
00
00
ENDCHAR
STARTCHAR u03AC
ENCODING 940
SWIDTH 666 0
DWIDTH 8 0
BBX 8 14 0 -4
BITMAP
00
00
00
38
10
00
7B
CE
CC
CC
CC
7B
00
00
ENDCHAR
STARTCHAR u0075
ENCODING 117
SWIDTH 666 0
DWIDTH 8 0
BBX 8 14 0 -4
BITMAP
00
00
00
00
00
00
CC
CC
CC
CC
CC
76
00
00
ENDCHAR
STARTCHAR u002B
ENCODING 43
SWIDTH 666 0
DWIDTH 8 0
BBX 8 14 0 -4
BITMAP
00
00
00
00
00
00
18
18
7E
18
18
00
00
00
ENDCHAR
STARTCHAR u2660
ENCODING 9824
SWIDTH 666 0
DWIDTH 8 0
BBX 8 14 0 -4
BITMAP
00
00
00
18
3C
7E
FF
FF
7E
18
18
3C
00
00
ENDCHAR
STARTCHAR u0021
ENCODING 33
SWIDTH 666 0
DWIDTH 8 0
BBX 8 14 0 -4
BITMAP
00
00
00
18
3C
3C
3C
18
18
00
18
18
00
00
ENDCHAR
STARTCHAR u0398
ENCODING 920
SWIDTH 666 0
DWIDTH 8 0
BBX 8 14 0 -4
BITMAP
00
00
00
7C
C6
C6
C6
FE
C6
C6
C6
7C
00
00
ENDCHAR
STARTCHAR u25BA
ENCODING 9658
SWIDTH 666 0
DWIDTH 8 0
BBX 8 14 0 -4
BITMAP
00
80
C0
E0
F0
F8
FE
F8
F0
E0
C0
80
00
00
ENDCHAR
STARTCHAR u003F
ENCODING 63
SWIDTH 666 0
DWIDTH 8 0
BBX 8 14 0 -4
BITMAP
00
00
00
7C
C6
C6
0C
18
18
00
18
18
00
00
ENDCHAR
STARTCHAR u263B
ENCODING 9787
SWIDTH 666 0
DWIDTH 8 0
BBX 8 14 0 -4
BITMAP
00
00
7E
FF
DB
FF
FF
C3
E7
FF
FF
7E
00
00
ENDCHAR
STARTCHAR u221F
ENCODING 8735
SWIDTH 666 0
DWIDTH 8 0
BBX 8 14 0 -4
BITMAP
00
00
00
00
00
00
C0
C0
C0
FE
00
00
00
00
ENDCHAR
STARTCHAR u25D9
ENCODING 9689
SWIDTH 666 0
DWIDTH 8 0
BBX 8 14 0 -4
BITMAP
FF
FF
FF
FF
C3
99
BD
BD
99
C3
FF
FF
FF
FF
ENDCHAR
STARTCHAR u0050
ENCODING 80
SWIDTH 666 0
DWIDTH 8 0
BBX 8 14 0 -4
BITMAP
00
00
00
FC
66
66
66
7C
60
60
60
F0
00
00
ENDCHAR
STARTCHAR u03AF
ENCODING 943
SWIDTH 666 0
DWIDTH 8 0
BBX 8 14 0 -4
BITMAP
00
00
00
38
10
00
18
18
18
18
18
0E
00
00
ENDCHAR
STARTCHAR u0077
ENCODING 119
SWIDTH 666 0
DWIDTH 8 0
BBX 8 14 0 -4
BITMAP
00
00
00
00
00
00
C6
C6
D6
D6
FE
6C
00
00
ENDCHAR
STARTCHAR u0063
ENCODING 99
SWIDTH 666 0
DWIDTH 8 0
BBX 8 14 0 -4
BITMAP
00
00
00
00
00
00
7C
C6
C0
C0
C6
7C
00
00
ENDCHAR
STARTCHAR u00B3
ENCODING 179
SWIDTH 666 0
DWIDTH 8 0
BBX 8 14 0 -4
BITMAP
3C
66
06
1E
06
66
3C
00
00
00
00
00
00
00
ENDCHAR
STARTCHAR u0048
ENCODING 72
SWIDTH 666 0
DWIDTH 8 0
BBX 8 14 0 -4
BITMAP
00
00
00
C6
C6
C6
C6
FE
C6
C6
C6
C6
00
00
ENDCHAR
STARTCHAR u2022
ENCODING 8226
SWIDTH 666 0
DWIDTH 8 0
BBX 8 14 0 -4
BITMAP
00
00
00
00
00
18
3C
3C
18
00
00
00
00
00
ENDCHAR
STARTCHAR u25C0
ENCODING 9664
SWIDTH 666 0
DWIDTH 8 0
BBX 8 14 0 -4
BITMAP
00
02
06
0E
1E
3E
FE
3E
1E
0E
06
02
00
00
ENDCHAR
STARTCHAR u03C3
ENCODING 963
SWIDTH 666 0
DWIDTH 8 0
BBX 8 14 0 -4
BITMAP
00
00
00
00
00
00
7F
CC
CC
CC
CC
78
00
00
ENDCHAR
STARTCHAR u004A
ENCODING 74
SWIDTH 666 0
DWIDTH 8 0
BBX 8 14 0 -4
BITMAP
00
00
00
1E
0C
0C
0C
0C
CC
CC
CC
78
00
00
ENDCHAR
STARTCHAR u0396
ENCODING 918
SWIDTH 666 0
DWIDTH 8 0
BBX 8 14 0 -4
BITMAP
00
00
00
FE
C6
86
0C
18
30
62
C6
FE
00
00
ENDCHAR
STARTCHAR u00B6
ENCODING 182
SWIDTH 666 0
DWIDTH 8 0
BBX 8 14 0 -4
BITMAP
00
00
00
7F
DB
DB
DB
7B
1B
1B
1B
1B
00
00
ENDCHAR
STARTCHAR u003D
ENCODING 61
SWIDTH 666 0
DWIDTH 8 0
BBX 8 14 0 -4
BITMAP
00
00
00
00
00
00
7E
00
00
7E
00
00
00
00
ENDCHAR
STARTCHAR u006C
ENCODING 108
SWIDTH 666 0
DWIDTH 8 0
BBX 8 14 0 -4
BITMAP
00
00
00
38
18
18
18
18
18
18
18
3C
00
00
ENDCHAR
STARTCHAR u03F4
ENCODING 1012
SWIDTH 666 0
DWIDTH 8 0
BBX 8 14 0 -4
BITMAP
06
0C
18
C3
00
00
00
00
00
00
00
00
00
00
ENDCHAR
STARTCHAR u0073
ENCODING 115
SWIDTH 666 0
DWIDTH 8 0
BBX 8 14 0 -4
BITMAP
00
00
00
00
00
00
7C
C6
70
1C
C6
7C
00
00
ENDCHAR
STARTCHAR u005C
ENCODING 92
SWIDTH 666 0
DWIDTH 8 0
BBX 8 14 0 -4
BITMAP
00
00
00
80
C0
E0
70
38
1C
0E
06
02
00
00
ENDCHAR
STARTCHAR u0067
ENCODING 103
SWIDTH 666 0
DWIDTH 8 0
BBX 8 14 0 -4
BITMAP
00
00
00
00
00
76
CC
CC
CC
CC
7C
0C
CC
78
ENDCHAR
STARTCHAR u039A
ENCODING 922
SWIDTH 666 0
DWIDTH 8 0
BBX 8 14 0 -4
BITMAP
00
00
00
E6
66
66
6C
78
6C
66
66
E6
00
00
ENDCHAR
STARTCHAR u03AA
ENCODING 938
SWIDTH 666 0
DWIDTH 8 0
BBX 8 14 0 -4
BITMAP
00
00
C3
18
18
18
18
18
18
18
18
18
00
00
ENDCHAR
STARTCHAR u0071
ENCODING 113
SWIDTH 666 0
DWIDTH 8 0
BBX 8 14 0 -4
BITMAP
00
00
00
00
00
76
CC
CC
CC
CC
7C
0C
0C
0C
ENDCHAR
STARTCHAR u00BD
ENCODING 189
SWIDTH 666 0
DWIDTH 8 0
BBX 8 14 0 -4
BITMAP
00
60
E0
62
66
6C
18
30
60
DC
86
0C
18
3E
ENDCHAR
STARTCHAR u0386
ENCODING 902
SWIDTH 666 0
DWIDTH 8 0
BBX 8 14 0 -4
BITMAP
00
00
C0
90
B8
6C
C6
C6
FE
C6
C6
C6
00
00
ENDCHAR
STARTCHAR u03A8
ENCODING 936
SWIDTH 666 0
DWIDTH 8 0
BBX 8 14 0 -4
BITMAP
00
00
00
18
DB
DB
DB
DB
7E
18
18
3C
00
00
ENDCHAR
STARTCHAR u005B
ENCODING 91
SWIDTH 666 0
DWIDTH 8 0
BBX 8 14 0 -4
BITMAP
00
00
00
3C
30
30
30
30
30
30
30
3C
00
00
ENDCHAR
STARTCHAR u00A7
ENCODING 167
SWIDTH 666 0
DWIDTH 8 0
BBX 8 14 0 -4
BITMAP
00
00
7C
C6
60
38
6C
C6
6C
38
0C
C6
7C
00
ENDCHAR
STARTCHAR u0030
ENCODING 48
SWIDTH 666 0
DWIDTH 8 0
BBX 8 14 0 -4
BITMAP
00
00
00
38
6C
C6
C6
D6
C6
C6
6C
38
00
00
ENDCHAR
STARTCHAR u006B
ENCODING 107
SWIDTH 666 0
DWIDTH 8 0
BBX 8 14 0 -4
BITMAP
00
00
00
E0
60
60
66
6C
78
6C
66
E6
00
00
ENDCHAR
STARTCHAR u0057
ENCODING 87
SWIDTH 666 0
DWIDTH 8 0
BBX 8 14 0 -4
BITMAP
00
00
00
C6
C6
C6
D6
D6
D6
FE
EE
6C
00
00
ENDCHAR
STARTCHAR u03A1
ENCODING 929
SWIDTH 666 0
DWIDTH 8 0
BBX 8 14 0 -4
BITMAP
00
00
00
FC
66
66
66
7C
60
60
60
F0
00
00
ENDCHAR
STARTCHAR u004D
ENCODING 77
SWIDTH 666 0
DWIDTH 8 0
BBX 8 14 0 -4
BITMAP
00
00
00
C6
EE
FE
FE
D6
C6
C6
C6
C6
00
00
ENDCHAR
STARTCHAR u03BE
ENCODING 958
SWIDTH 666 0
DWIDTH 8 0
BBX 8 14 0 -4
BITMAP
00
FC
60
C0
78
30
60
C0
C0
C0
7C
06
06
7C
ENDCHAR
STARTCHAR u03A3
ENCODING 931
SWIDTH 666 0
DWIDTH 8 0
BBX 8 14 0 -4
BITMAP
00
00
00
FE
C0
60
30
18
30
60
C0
FE
00
00
ENDCHAR
STARTCHAR uFFFD
ENCODING 65533
SWIDTH 666 0
DWIDTH 8 0
BBX 8 14 0 -4
BITMAP
00
00
00
00
00
00
00
00
00
00
00
00
00
00
ENDCHAR
STARTCHAR u03B9
ENCODING 953
SWIDTH 666 0
DWIDTH 8 0
BBX 8 14 0 -4
BITMAP
00
00
00
00
00
00
18
18
18
18
18
0E
00
00
ENDCHAR
STARTCHAR u007B
ENCODING 123
SWIDTH 666 0
DWIDTH 8 0
BBX 8 14 0 -4
BITMAP
00
00
00
0E
18
18
18
70
18
18
18
0E
00
00
ENDCHAR
STARTCHAR u0389
ENCODING 905
SWIDTH 666 0
DWIDTH 8 0
BBX 8 14 0 -4
BITMAP
00
00
00
B3
B3
33
33
3F
33
33
33
33
00
00
ENDCHAR
STARTCHAR u0032
ENCODING 50
SWIDTH 666 0
DWIDTH 8 0
BBX 8 14 0 -4
BITMAP
00
00
00
7C
C6
06
0C
18
30
60
C6
FE
00
00
ENDCHAR
STARTCHAR u0027
ENCODING 39
SWIDTH 666 0
DWIDTH 8 0
BBX 8 14 0 -4
BITMAP
00
00
30
30
30
60
00
00
00
00
00
00
00
00
ENDCHAR
STARTCHAR u0040
ENCODING 64
SWIDTH 666 0
DWIDTH 8 0
BBX 8 14 0 -4
BITMAP
00
00
00
7C
C6
C6
C6
DE
DE
DC
C0
7C
00
00
ENDCHAR
STARTCHAR u0061
ENCODING 97
SWIDTH 666 0
DWIDTH 8 0
BBX 8 14 0 -4
BITMAP
00
00
00
00
00
00
78
0C
7C
CC
CC
76
00
00
ENDCHAR
STARTCHAR u03C9
ENCODING 969
SWIDTH 666 0
DWIDTH 8 0
BBX 8 14 0 -4
BITMAP
00
00
00
00
00
00
66
C3
C3
DB
FF
66
00
00
ENDCHAR
STARTCHAR u2302
ENCODING 8962
SWIDTH 666 0
DWIDTH 8 0
BBX 8 14 0 -4
BITMAP
00
00
00
00
10
38
6C
C6
C6
C6
FE
00
00
00
ENDCHAR
STARTCHAR u0029
ENCODING 41
SWIDTH 666 0
DWIDTH 8 0
BBX 8 14 0 -4
BITMAP
00
00
00
30
18
0C
0C
0C
0C
0C
18
30
00
00
ENDCHAR
STARTCHAR u0371
ENCODING 881
SWIDTH 666 0
DWIDTH 8 0
BBX 8 14 0 -4
BITMAP
00
30
60
60
30
00
00
00
00
00
00
00
00
00
ENDCHAR
STARTCHAR u0034
ENCODING 52
SWIDTH 666 0
DWIDTH 8 0
BBX 8 14 0 -4
BITMAP
00
00
00
0C
1C
3C
6C
CC
FE
0C
0C
1E
00
00
ENDCHAR
STARTCHAR u03B5
ENCODING 949
SWIDTH 666 0
DWIDTH 8 0
BBX 8 14 0 -4
BITMAP
00
00
00
00
00
7C
C6
C0
78
C0
C6
7C
00
00
ENDCHAR
STARTCHAR u00AD
ENCODING 173
SWIDTH 666 0
DWIDTH 8 0
BBX 8 14 0 -4
BITMAP
00
00
00
00
00
00
00
7E
00
00
00
00
00
00
ENDCHAR
STARTCHAR u0038
ENCODING 56
SWIDTH 666 0
DWIDTH 8 0
BBX 8 14 0 -4
BITMAP
00
00
00
7C
C6
C6
C6
7C
C6
C6
C6
7C
00
00
ENDCHAR
STARTCHAR u002D
ENCODING 45
SWIDTH 666 0
DWIDTH 8 0
BBX 8 14 0 -4
BITMAP
00
00
00
00
00
00
00
00
FE
00
00
00
00
00
ENDCHAR
STARTCHAR u0042
ENCODING 66
SWIDTH 666 0
DWIDTH 8 0
BBX 8 14 0 -4
BITMAP
00
00
00
FC
66
66
66
7C
66
66
66
FC
00
00
ENDCHAR
STARTCHAR u0036
ENCODING 54
SWIDTH 666 0
DWIDTH 8 0
BBX 8 14 0 -4
BITMAP
00
00
00
38
60
C0
C0
FC
C6
C6
C6
7C
00
00
ENDCHAR
STARTCHAR u038E
ENCODING 910
SWIDTH 666 0
DWIDTH 8 0
BBX 8 14 0 -4
BITMAP
00
00
00
B3
B3
33
33
1E
0C
0C
0C
1E
00
00
ENDCHAR
STARTCHAR u2191
ENCODING 8593
SWIDTH 666 0
DWIDTH 8 0
BBX 8 14 0 -4
BITMAP
00
00
18
3C
7E
18
18
18
18
18
18
18
00
00
ENDCHAR
STARTCHAR u0046
ENCODING 70
SWIDTH 666 0
DWIDTH 8 0
BBX 8 14 0 -4
BITMAP
00
00
00
FE
66
62
68
78
68
60
60
F0
00
00
ENDCHAR
STARTCHAR u03C7
ENCODING 967
SWIDTH 666 0
DWIDTH 8 0
BBX 8 14 0 -4
BITMAP
00
00
00
00
00
00
C6
6C
38
38
6C
C6
00
00
ENDCHAR
STARTCHAR u0044
ENCODING 68
SWIDTH 666 0
DWIDTH 8 0
BBX 8 14 0 -4
BITMAP
00
00
00
F8
6C
66
66
66
66
66
6C
F8
00
00
ENDCHAR
STARTCHAR u00A6
ENCODING 166
SWIDTH 666 0
DWIDTH 8 0
BBX 8 14 0 -4
BITMAP
00
00
00
18
18
18
18
18
00
18
18
18
18
18
ENDCHAR
STARTCHAR u266B
ENCODING 9835
SWIDTH 666 0
DWIDTH 8 0
BBX 8 14 0 -4
BITMAP
00
00
7F
63
7F
63
63
63
63
67
E7
E6
C0
00
ENDCHAR
STARTCHAR u0058
ENCODING 88
SWIDTH 666 0
DWIDTH 8 0
BBX 8 14 0 -4
BITMAP
00
00
00
C6
C6
6C
7C
38
7C
6C
C6
C6
00
00
ENDCHAR
STARTCHAR u0074
ENCODING 116
SWIDTH 666 0
DWIDTH 8 0
BBX 8 14 0 -4
BITMAP
00
00
00
10
30
30
FC
30
30
30
36
1C
00
00
ENDCHAR
STARTCHAR u21A8
ENCODING 8616
SWIDTH 666 0
DWIDTH 8 0
BBX 8 14 0 -4
BITMAP
00
00
18
3C
7E
18
18
18
7E
3C
18
7E
00
00
ENDCHAR
STARTCHAR u03B2
ENCODING 946
SWIDTH 666 0
DWIDTH 8 0
BBX 8 14 0 -4
BITMAP
00
00
00
7C
C6
C6
C6
FC
C6
C6
C6
FC
C0
C0
ENDCHAR
STARTCHAR u0392
ENCODING 914
SWIDTH 666 0
DWIDTH 8 0
BBX 8 14 0 -4
BITMAP
00
00
00
FC
66
66
66
7C
66
66
66
FC
00
00
ENDCHAR
STARTCHAR u0064
ENCODING 100
SWIDTH 666 0
DWIDTH 8 0
BBX 8 14 0 -4
BITMAP
00
00
00
1C
0C
0C
3C
6C
CC
CC
CC
76
00
00
ENDCHAR
STARTCHAR u03C5
ENCODING 965
SWIDTH 666 0
DWIDTH 8 0
BBX 8 14 0 -4
BITMAP
00
00
00
00
00
00
E7
66
66
66
66
3C
00
00
ENDCHAR
STARTCHAR u0078
ENCODING 120
SWIDTH 666 0
DWIDTH 8 0
BBX 8 14 0 -4
BITMAP
00
00
00
00
00
00
C6
6C
38
38
6C
C6
00
00
ENDCHAR
STARTCHAR u0028
ENCODING 40
SWIDTH 666 0
DWIDTH 8 0
BBX 8 14 0 -4
BITMAP
00
00
00
0C
18
30
30
30
30
30
18
0C
00
00
ENDCHAR
STARTCHAR u004B
ENCODING 75
SWIDTH 666 0
DWIDTH 8 0
BBX 8 14 0 -4
BITMAP
00
00
00
E6
66
66
6C
78
6C
66
66
E6
00
00
ENDCHAR
STARTCHAR u0053
ENCODING 83
SWIDTH 666 0
DWIDTH 8 0
BBX 8 14 0 -4
BITMAP
00
00
00
7C
C6
C6
60
38
0C
C6
C6
7C
00
00
ENDCHAR
STARTCHAR u2194
ENCODING 8596
SWIDTH 666 0
DWIDTH 8 0
BBX 8 14 0 -4
BITMAP
00
00
00
00
00
28
6C
FE
6C
28
00
00
00
00
ENDCHAR
STARTCHAR u03A0
ENCODING 928
SWIDTH 666 0
DWIDTH 8 0
BBX 8 14 0 -4
BITMAP
00
00
00
FE
C6
C6
C6
C6
C6
C6
C6
C6
00
00
ENDCHAR
STARTCHAR u003B
ENCODING 59
SWIDTH 666 0
DWIDTH 8 0
BBX 8 14 0 -4
BITMAP
00
00
00
00
00
18
18
00
00
18
18
30
00
00
ENDCHAR
STARTCHAR u038A
ENCODING 906
SWIDTH 666 0
DWIDTH 8 0
BBX 8 14 0 -4
BITMAP
00
00
00
BC
98
18
18
18
18
18
18
3C
00
00
ENDCHAR
STARTCHAR u03C0
ENCODING 960
SWIDTH 666 0
DWIDTH 8 0
BBX 8 14 0 -4
BITMAP
00
00
00
00
00
00
FF
66
66
66
66
66
00
00
ENDCHAR
STARTCHAR u00B1
ENCODING 177
SWIDTH 666 0
DWIDTH 8 0
BBX 8 14 0 -4
BITMAP
00
00
00
18
18
7E
18
18
00
7E
00
00
00
00
ENDCHAR
STARTCHAR u03C2
ENCODING 962
SWIDTH 666 0
DWIDTH 8 0
BBX 8 14 0 -4
BITMAP
00
00
00
00
00
00
3E
63
C0
60
38
0C
C6
7C
ENDCHAR
STARTCHAR u0035
ENCODING 53
SWIDTH 666 0
DWIDTH 8 0
BBX 8 14 0 -4
BITMAP
00
00
00
FE
C0
C0
C0
FC
06
06
C6
7C
00
00
ENDCHAR
STARTCHAR u25BC
ENCODING 9660
SWIDTH 666 0
DWIDTH 8 0
BBX 8 14 0 -4
BITMAP
00
00
00
00
FE
FE
7C
7C
38
38
10
00
00
00
ENDCHAR
STARTCHAR u007A
ENCODING 122
SWIDTH 666 0
DWIDTH 8 0
BBX 8 14 0 -4
BITMAP
00
00
00
00
00
00
FE
8C
38
70
C6
FE
00
00
ENDCHAR
STARTCHAR u203C
ENCODING 8252
SWIDTH 666 0
DWIDTH 8 0
BBX 8 14 0 -4
BITMAP
00
00
66
66
66
66
66
66
66
00
66
66
00
00
ENDCHAR
STARTCHAR u002A
ENCODING 42
SWIDTH 666 0
DWIDTH 8 0
BBX 8 14 0 -4
BITMAP
00
00
00
00
00
00
66
3C
FF
3C
66
00
00
00
ENDCHAR
STARTCHAR u03AD
ENCODING 941
SWIDTH 666 0
DWIDTH 8 0
BBX 8 14 0 -4
BITMAP
00
00
38
10
00
7C
C6
C0
78
C0
C6
7C
00
00
ENDCHAR
STARTCHAR u002E
ENCODING 46
SWIDTH 666 0
DWIDTH 8 0
BBX 8 14 0 -4
BITMAP
00
00
00
00
00
00
00
00
00
00
18
18
00
00
ENDCHAR
STARTCHAR u039F
ENCODING 927
SWIDTH 666 0
DWIDTH 8 0
BBX 8 14 0 -4
BITMAP
00
00
00
7C
C6
C6
C6
C6
C6
C6
C6
7C
00
00
ENDCHAR
STARTCHAR u03CC
ENCODING 972
SWIDTH 666 0
DWIDTH 8 0
BBX 8 14 0 -4
BITMAP
00
00
00
38
10
00
7C
C6
C6
C6
C6
7C
00
00
ENDCHAR
STARTCHAR u0069
ENCODING 105
SWIDTH 666 0
DWIDTH 8 0
BBX 8 14 0 -4
BITMAP
00
00
00
18
18
00
38
18
18
18
18
3C
00
00
ENDCHAR
STARTCHAR u03B7
ENCODING 951
SWIDTH 666 0
DWIDTH 8 0
BBX 8 14 0 -4
BITMAP
00
00
00
00
00
00
DC
66
66
66
66
66
06
06
ENDCHAR
STARTCHAR u039D
ENCODING 925
SWIDTH 666 0
DWIDTH 8 0
BBX 8 14 0 -4
BITMAP
00
00
00
C6
E6
F6
FE
DE
CE
C6
C6
C6
00
00
ENDCHAR
STARTCHAR u0055
ENCODING 85
SWIDTH 666 0
DWIDTH 8 0
BBX 8 14 0 -4
BITMAP
00
00
00
C6
C6
C6
C6
C6
C6
C6
C6
7C
00
00
ENDCHAR
STARTCHAR u0024
ENCODING 36
SWIDTH 666 0
DWIDTH 8 0
BBX 8 14 0 -4
BITMAP
00
18
18
7C
C6
C2
C0
7C
06
86
C6
7C
18
18
ENDCHAR
STARTCHAR u00B7
ENCODING 183
SWIDTH 666 0
DWIDTH 8 0
BBX 8 14 0 -4
BITMAP
00
18
18
00
00
00
00
00
00
00
00
00
00
00
ENDCHAR
STARTCHAR u25B6
ENCODING 9654
SWIDTH 666 0
DWIDTH 8 0
BBX 8 14 0 -4
BITMAP
00
80
C0
E0
F0
F8
FE
F8
F0
E0
C0
80
00
00
ENDCHAR
STARTCHAR u005E
ENCODING 94
SWIDTH 666 0
DWIDTH 8 0
BBX 8 14 0 -4
BITMAP
10
38
6C
C6
00
00
00
00
00
00
00
00
00
00
ENDCHAR
STARTCHAR u0033
ENCODING 51
SWIDTH 666 0
DWIDTH 8 0
BBX 8 14 0 -4
BITMAP
00
00
00
7C
C6
06
06
3C
06
06
C6
7C
00
00
ENDCHAR
STARTCHAR u006F
ENCODING 111
SWIDTH 666 0
DWIDTH 8 0
BBX 8 14 0 -4
BITMAP
00
00
00
00
00
00
7C
C6
C6
C6
C6
7C
00
00
ENDCHAR
STARTCHAR u0026
ENCODING 38
SWIDTH 666 0
DWIDTH 8 0
BBX 8 14 0 -4
BITMAP
00
00
00
38
6C
6C
38
76
DC
CC
CC
76
00
00
ENDCHAR
STARTCHAR u0022
ENCODING 34
SWIDTH 666 0
DWIDTH 8 0
BBX 8 14 0 -4
BITMAP
00
00
66
66
66
24
00
00
00
00
00
00
00
00
ENDCHAR
STARTCHAR u2319
ENCODING 8985
SWIDTH 666 0
DWIDTH 8 0
BBX 8 14 0 -4
BITMAP
00
00
00
00
00
00
C0
C0
C0
FE
00
00
00
00
ENDCHAR
STARTCHAR u00A9
ENCODING 169
SWIDTH 666 0
DWIDTH 8 0
BBX 8 14 0 -4
BITMAP
00
00
18
66
C3
99
A1
A1
99
C3
66
18
00
00
ENDCHAR
STARTCHAR u00AB
ENCODING 171
SWIDTH 666 0
DWIDTH 8 0
BBX 8 14 0 -4
BITMAP
00
00
00
00
00
00
00
36
6C
D8
6C
36
00
00
ENDCHAR
STARTCHAR u03B1
ENCODING 945
SWIDTH 666 0
DWIDTH 8 0
BBX 8 14 0 -4
BITMAP
00
00
00
00
00
00
7B
CE
CC
CC
CC
7B
00
00
ENDCHAR
ENDFONT
